<?xml version="1.0" standalone="no"?>
<!DOCTYPE svg PUBLIC "-//W3C//DTD SVG 20010904//EN"
 "http://www.w3.org/TR/2001/REC-SVG-20010904/DTD/svg10.dtd">
<svg version="1.0" xmlns="http://www.w3.org/2000/svg"
 width="64.000000pt" height="64.000000pt" viewBox="0 0 64.000000 64.000000"
 preserveAspectRatio="xMidYMid meet">
<metadata>
Created by potrace 1.10, written by Peter Selinger 2001-2011
</metadata>
<g transform="translate(0.000000,64.000000) scale(0.100000,-0.100000)"
fill="#000000" stroke="none">
<path d="M112 454 c-51 -31 -74 -72 -74 -134 0 -63 23 -104 78 -136 35 -20 54
-25 83 -21 56 7 93 28 116 64 17 28 26 32 64 33 l44 0 -5 -50 -5 -50 67 0 67
0 -5 52 -5 51 37 -6 36 -6 0 67 0 67 -133 -3 -132 -4 -32 39 c-52 65 -130 79
-201 37z m138 -39 c15 -8 34 -28 42 -45 l13 -30 127 0 c121 0 128 -1 128 -20
0 -16 -7 -20 -30 -20 -29 0 -30 -1 -30 -50 0 -43 -3 -50 -20 -50 -17 0 -20 7
-20 50 l0 50 -78 0 c-76 0 -77 0 -90 -30 -17 -37 -58 -60 -108 -60 -54 0 -104
53 -104 110 0 34 6 48 34 76 38 38 86 45 136 19z"/>
<path d="M147 362 c-37 -40 -9 -102 46 -102 14 0 33 7 41 16 20 20 20 68 0 88
-21 22 -67 20 -87 -2z m71 -36 c2 -10 0 -22 -5 -27 -14 -14 -53 2 -53 21 0 33
52 38 58 6z"/>
</g>
</svg>
