<?xml version="1.0" standalone="no"?>
<!DOCTYPE svg PUBLIC "-//W3C//DTD SVG 20010904//EN"
 "http://www.w3.org/TR/2001/REC-SVG-20010904/DTD/svg10.dtd">
<svg version="1.0" xmlns="http://www.w3.org/2000/svg"
 width="75.000000pt" height="75.000000pt" viewBox="0 0 75.000000 75.000000"
 preserveAspectRatio="xMidYMid meet">
<metadata>
Created by potrace 1.10, written by Peter Selinger 2001-2011
</metadata>
<g transform="translate(0.000000,75.000000) scale(0.050000,-0.050000)"
fill="#000000" stroke="none">
<path d="M550 1233 c-200 -66 -363 -201 -460 -380 l-39 -73 47 -86 c251 -459
853 -519 1224 -121 126 136 140 213 58 334 -186 276 -549 418 -830 326z m452
-181 c84 -44 158 -103 215 -173 l87 -106 -127 -117 c-215 -198 -440 -273 -568
-190 -21 14 -75 38 -119 53 -81 27 -269 191 -269 235 -2 68 213 306 276 306
10 0 44 13 76 30 105 55 284 39 429 -38z"/>
<path d="M567 997 c-126 -135 -138 -221 -47 -364 168 -264 569 -108 511 199
-39 207 -327 310 -464 165z"/>
</g>
</svg>
